<svg xmlns="http://www.w3.org/2000/svg" viewBox="0 0 200 240" width="100%" height="100%">
  <!-- Fragezeichen-Bogen (Seeblau #1E88C8) -->
  <path d="M 60 90 C 60 40, 140 40, 140 90 C 140 125, 100 120, 100 155" 
        fill="none" stroke="#1E88C8" stroke-width="22" stroke-linecap="round" />
  
  <!-- Punkt des Fragezeichens (Koralle #FF6B57) -->
  <circle cx="100" cy="195" r="12" fill="#FF6B57" />

  <!-- Wellenelemente unten (Seeblau #1E88C8) -->
  <path d="M 45 175 Q 55 168 65 175 T 85 175" fill="none" stroke="#1E88C8" stroke-width="5" stroke-linecap="round" />
  <path d="M 115 175 Q 125 168 135 175 T 155 175" fill="none" stroke="#1E88C8" stroke-width="5" stroke-linecap="round" />

  <!-- Schwimmreifen (Koralle #FF6B57 & Sand #F2E3C6) -->
  <ellipse cx="100" cy="70" rx="32" ry="16" fill="#FF6B57" stroke="#1E88C8" stroke-width="4" />
  <ellipse cx="100" cy="70" rx="18" ry="9" fill="#F2E3C6" stroke="#1E88C8" stroke-width="3" />

  <!-- Schwimmerfigur (Weiß #FFFFFF) -->
  <circle cx="100" cy="38" r="10" fill="#FFFFFF" stroke="#1E88C8" stroke-width="4" />
  <path d="M 90 76 L 90 102 M 110 76 L 110 102" fill="none" stroke="#1E88C8" stroke-width="5" stroke-linecap="round" />
  <path d="M 82 50 Q 70 60 75 68 M 118 50 Q 130 60 125 68" fill="none" stroke="#1E88C8" stroke-width="4" stroke-linecap="round" />
</svg>
